<mxfile host="app.diagrams.net" modified="2021-05-26T04:07:24.133Z" agent="5.0 (Macintosh; Intel Mac OS X 10_15_7) AppleWebKit/537.36 (KHTML, like Gecko) Chrome/90.0.4430.212 Safari/537.36" etag="TXHyitqEd8lBdFImC6UB" version="14.6.12" type="github" pages="4">
  <diagram id="xvaDDSzPtduDtoku5TKO" name="save-result">
    <mxGraphModel dx="946" dy="613" grid="1" gridSize="10" guides="1" tooltips="1" connect="1" arrows="1" fold="1" page="1" pageScale="1" pageWidth="827" pageHeight="1169" background="none" math="0" shadow="0">
      <root>
        <mxCell id="0" />
        <mxCell id="1" parent="0" />
        <mxCell id="YTdMOrOy_9PNuUq5TveW-58" value="" style="shape=table;html=1;whiteSpace=wrap;startSize=0;container=1;collapsible=0;childLayout=tableLayout;" parent="1" vertex="1">
          <mxGeometry x="70" y="180" width="720" height="170" as="geometry" />
        </mxCell>
        <mxCell id="YTdMOrOy_9PNuUq5TveW-59" value="" style="shape=partialRectangle;html=1;whiteSpace=wrap;collapsible=0;dropTarget=0;pointerEvents=0;fillColor=none;top=0;left=0;bottom=0;right=0;points=[[0,0.5],[1,0.5]];portConstraint=eastwest;" parent="YTdMOrOy_9PNuUq5TveW-58" vertex="1">
          <mxGeometry width="720" height="40" as="geometry" />
        </mxCell>
        <mxCell id="YTdMOrOy_9PNuUq5TveW-60" value="Old" style="shape=partialRectangle;html=1;whiteSpace=wrap;connectable=0;overflow=hidden;fillColor=none;top=0;left=0;bottom=0;right=0;fontStyle=1" parent="YTdMOrOy_9PNuUq5TveW-59" vertex="1">
          <mxGeometry width="70" height="40" as="geometry" />
        </mxCell>
        <mxCell id="YTdMOrOy_9PNuUq5TveW-61" value="动态图" style="shape=partialRectangle;html=1;whiteSpace=wrap;connectable=0;overflow=hidden;fillColor=none;top=0;left=0;bottom=0;right=0;" parent="YTdMOrOy_9PNuUq5TveW-59" vertex="1">
          <mxGeometry x="70" width="190" height="40" as="geometry" />
        </mxCell>
        <mxCell id="YTdMOrOy_9PNuUq5TveW-62" value="静态图" style="shape=partialRectangle;html=1;whiteSpace=wrap;connectable=0;overflow=hidden;fillColor=none;top=0;left=0;bottom=0;right=0;" parent="YTdMOrOy_9PNuUq5TveW-59" vertex="1">
          <mxGeometry x="260" width="230" height="40" as="geometry" />
        </mxCell>
        <mxCell id="YTdMOrOy_9PNuUq5TveW-63" value="高层API（调用前述4个API）" style="shape=partialRectangle;html=1;whiteSpace=wrap;connectable=0;overflow=hidden;fillColor=none;top=0;left=0;bottom=0;right=0;" parent="YTdMOrOy_9PNuUq5TveW-59" vertex="1">
          <mxGeometry x="490" width="230" height="40" as="geometry" />
        </mxCell>
        <mxCell id="YTdMOrOy_9PNuUq5TveW-64" value="" style="shape=partialRectangle;html=1;whiteSpace=wrap;collapsible=0;dropTarget=0;pointerEvents=0;fillColor=none;top=0;left=0;bottom=0;right=0;points=[[0,0.5],[1,0.5]];portConstraint=eastwest;" parent="YTdMOrOy_9PNuUq5TveW-58" vertex="1">
          <mxGeometry y="40" width="720" height="60" as="geometry" />
        </mxCell>
        <mxCell id="YTdMOrOy_9PNuUq5TveW-65" value="训练调优" style="shape=partialRectangle;html=1;whiteSpace=wrap;connectable=0;overflow=hidden;fillColor=none;top=0;left=0;bottom=0;right=0;" parent="YTdMOrOy_9PNuUq5TveW-64" vertex="1">
          <mxGeometry width="70" height="60" as="geometry" />
        </mxCell>
        <mxCell id="YTdMOrOy_9PNuUq5TveW-66" value="&lt;b&gt;paddle.save&lt;/b&gt;&lt;br&gt;(*.pdparams, *pdopt)" style="shape=partialRectangle;html=1;whiteSpace=wrap;connectable=0;overflow=hidden;fillColor=none;top=0;left=0;bottom=0;right=0;" parent="YTdMOrOy_9PNuUq5TveW-64" vertex="1">
          <mxGeometry x="70" width="190" height="60" as="geometry" />
        </mxCell>
        <mxCell id="YTdMOrOy_9PNuUq5TveW-67" value="&lt;b&gt;paddle.static.save&lt;/b&gt;&lt;br&gt;(*.pdmodel, *.pdparams, *.pdopt)" style="shape=partialRectangle;html=1;whiteSpace=wrap;connectable=0;overflow=hidden;fillColor=none;top=0;left=0;bottom=0;right=0;" parent="YTdMOrOy_9PNuUq5TveW-64" vertex="1">
          <mxGeometry x="260" width="230" height="60" as="geometry" />
        </mxCell>
        <mxCell id="YTdMOrOy_9PNuUq5TveW-68" value="&lt;b&gt;paddle.Model().save(training=True)&lt;br&gt;&lt;/b&gt;（静: *.pdmodel, *.pdparams, *.pdopt)&lt;br&gt;(动: *.pdparams, *.pdopt)" style="shape=partialRectangle;html=1;whiteSpace=wrap;connectable=0;overflow=hidden;fillColor=none;top=0;left=0;bottom=0;right=0;" parent="YTdMOrOy_9PNuUq5TveW-64" vertex="1">
          <mxGeometry x="490" width="230" height="60" as="geometry" />
        </mxCell>
        <mxCell id="YTdMOrOy_9PNuUq5TveW-69" value="" style="shape=partialRectangle;html=1;whiteSpace=wrap;collapsible=0;dropTarget=0;pointerEvents=0;fillColor=none;top=0;left=0;bottom=0;right=0;points=[[0,0.5],[1,0.5]];portConstraint=eastwest;" parent="YTdMOrOy_9PNuUq5TveW-58" vertex="1">
          <mxGeometry y="100" width="720" height="70" as="geometry" />
        </mxCell>
        <mxCell id="YTdMOrOy_9PNuUq5TveW-70" value="训练部署" style="shape=partialRectangle;html=1;whiteSpace=wrap;connectable=0;overflow=hidden;fillColor=none;top=0;left=0;bottom=0;right=0;" parent="YTdMOrOy_9PNuUq5TveW-69" vertex="1">
          <mxGeometry width="70" height="70" as="geometry" />
        </mxCell>
        <mxCell id="YTdMOrOy_9PNuUq5TveW-71" value="&lt;b&gt;paddle.jit.save&lt;/b&gt;&lt;br&gt;&lt;font color=&quot;#cc0000&quot;&gt;(__model__, __variables__, __variables.info__)&lt;/font&gt;" style="shape=partialRectangle;html=1;whiteSpace=wrap;connectable=0;overflow=hidden;fillColor=none;top=0;left=0;bottom=0;right=0;" parent="YTdMOrOy_9PNuUq5TveW-69" vertex="1">
          <mxGeometry x="70" width="190" height="70" as="geometry" />
        </mxCell>
        <mxCell id="YTdMOrOy_9PNuUq5TveW-72" value="&lt;b&gt;paddle.static.save_inference_model&lt;/b&gt;&lt;br&gt;&lt;font color=&quot;#cc0000&quot;&gt;(__model__, ***)&lt;/font&gt;" style="shape=partialRectangle;html=1;whiteSpace=wrap;connectable=0;overflow=hidden;fillColor=none;top=0;left=0;bottom=0;right=0;" parent="YTdMOrOy_9PNuUq5TveW-69" vertex="1">
          <mxGeometry x="260" width="230" height="70" as="geometry" />
        </mxCell>
        <mxCell id="YTdMOrOy_9PNuUq5TveW-73" value="&lt;b&gt;paddle.Model().save(training=False)&lt;/b&gt;&lt;br&gt;&lt;font color=&quot;#cc0000&quot;&gt;（静: __model__, ***)&lt;br&gt;（动: __model__, __variables__, __variables.info__)&lt;/font&gt;" style="shape=partialRectangle;html=1;whiteSpace=wrap;connectable=0;overflow=hidden;fillColor=none;top=0;left=0;bottom=0;right=0;" parent="YTdMOrOy_9PNuUq5TveW-69" vertex="1">
          <mxGeometry x="490" width="230" height="70" as="geometry" />
        </mxCell>
        <mxCell id="YTdMOrOy_9PNuUq5TveW-74" value="" style="shape=flexArrow;endArrow=classic;html=1;width=16;endSize=6.67;" parent="1" edge="1">
          <mxGeometry width="50" height="50" relative="1" as="geometry">
            <mxPoint x="430" y="361" as="sourcePoint" />
            <mxPoint x="430" y="401" as="targetPoint" />
          </mxGeometry>
        </mxCell>
        <mxCell id="DGd8fxGHTvp8f4uAHh83-1" value="问题：训练和预测存储文件的组织形式和命名风格不同！" style="text;html=1;strokeColor=none;fillColor=none;align=center;verticalAlign=middle;whiteSpace=wrap;rounded=0;dashed=1;fontColor=#CC0000;" parent="1" vertex="1">
          <mxGeometry x="60" y="360" width="320" height="20" as="geometry" />
        </mxCell>
        <mxCell id="YTdMOrOy_9PNuUq5TveW-41" value="" style="shape=table;html=1;whiteSpace=wrap;startSize=0;container=1;collapsible=0;childLayout=tableLayout;" parent="1" vertex="1">
          <mxGeometry x="70" y="410" width="720" height="170" as="geometry" />
        </mxCell>
        <mxCell id="YTdMOrOy_9PNuUq5TveW-42" value="" style="shape=partialRectangle;html=1;whiteSpace=wrap;collapsible=0;dropTarget=0;pointerEvents=0;fillColor=none;top=0;left=0;bottom=0;right=0;points=[[0,0.5],[1,0.5]];portConstraint=eastwest;" parent="YTdMOrOy_9PNuUq5TveW-41" vertex="1">
          <mxGeometry width="720" height="40" as="geometry" />
        </mxCell>
        <mxCell id="YTdMOrOy_9PNuUq5TveW-43" value="New" style="shape=partialRectangle;html=1;whiteSpace=wrap;connectable=0;overflow=hidden;fillColor=none;top=0;left=0;bottom=0;right=0;fontStyle=1" parent="YTdMOrOy_9PNuUq5TveW-42" vertex="1">
          <mxGeometry width="70" height="40" as="geometry" />
        </mxCell>
        <mxCell id="YTdMOrOy_9PNuUq5TveW-44" value="动态图" style="shape=partialRectangle;html=1;whiteSpace=wrap;connectable=0;overflow=hidden;fillColor=none;top=0;left=0;bottom=0;right=0;" parent="YTdMOrOy_9PNuUq5TveW-42" vertex="1">
          <mxGeometry x="70" width="190" height="40" as="geometry" />
        </mxCell>
        <mxCell id="YTdMOrOy_9PNuUq5TveW-45" value="静态图" style="shape=partialRectangle;html=1;whiteSpace=wrap;connectable=0;overflow=hidden;fillColor=none;top=0;left=0;bottom=0;right=0;" parent="YTdMOrOy_9PNuUq5TveW-42" vertex="1">
          <mxGeometry x="260" width="230" height="40" as="geometry" />
        </mxCell>
        <mxCell id="YTdMOrOy_9PNuUq5TveW-46" value="高层API（调用前述4个API）" style="shape=partialRectangle;html=1;whiteSpace=wrap;connectable=0;overflow=hidden;fillColor=none;top=0;left=0;bottom=0;right=0;" parent="YTdMOrOy_9PNuUq5TveW-42" vertex="1">
          <mxGeometry x="490" width="230" height="40" as="geometry" />
        </mxCell>
        <mxCell id="YTdMOrOy_9PNuUq5TveW-47" value="" style="shape=partialRectangle;html=1;whiteSpace=wrap;collapsible=0;dropTarget=0;pointerEvents=0;fillColor=none;top=0;left=0;bottom=0;right=0;points=[[0,0.5],[1,0.5]];portConstraint=eastwest;" parent="YTdMOrOy_9PNuUq5TveW-41" vertex="1">
          <mxGeometry y="40" width="720" height="60" as="geometry" />
        </mxCell>
        <mxCell id="YTdMOrOy_9PNuUq5TveW-48" value="训练调优" style="shape=partialRectangle;html=1;whiteSpace=wrap;connectable=0;overflow=hidden;fillColor=none;top=0;left=0;bottom=0;right=0;" parent="YTdMOrOy_9PNuUq5TveW-47" vertex="1">
          <mxGeometry width="70" height="60" as="geometry" />
        </mxCell>
        <mxCell id="YTdMOrOy_9PNuUq5TveW-49" value="&lt;b&gt;paddle.save&lt;/b&gt;&lt;br&gt;(推荐: *.pdparams, *pdopt)" style="shape=partialRectangle;html=1;whiteSpace=wrap;connectable=0;overflow=hidden;fillColor=none;top=0;left=0;bottom=0;right=0;" parent="YTdMOrOy_9PNuUq5TveW-47" vertex="1">
          <mxGeometry x="70" width="190" height="60" as="geometry" />
        </mxCell>
        <mxCell id="YTdMOrOy_9PNuUq5TveW-50" value="&lt;b&gt;paddle.static.save&lt;/b&gt;&lt;br&gt;(*.pdmodel, *.pdparams, *.pdopt)" style="shape=partialRectangle;html=1;whiteSpace=wrap;connectable=0;overflow=hidden;fillColor=none;top=0;left=0;bottom=0;right=0;" parent="YTdMOrOy_9PNuUq5TveW-47" vertex="1">
          <mxGeometry x="260" width="230" height="60" as="geometry" />
        </mxCell>
        <mxCell id="YTdMOrOy_9PNuUq5TveW-51" value="&lt;b&gt;paddle.Model().save(training=True)&lt;/b&gt;&lt;br&gt;（静: *.pdmodel, *.pdparams, *.pdopt)&lt;br&gt;(动: *.pdparams, *.pdopt)" style="shape=partialRectangle;html=1;whiteSpace=wrap;connectable=0;overflow=hidden;fillColor=none;top=0;left=0;bottom=0;right=0;" parent="YTdMOrOy_9PNuUq5TveW-47" vertex="1">
          <mxGeometry x="490" width="230" height="60" as="geometry" />
        </mxCell>
        <mxCell id="YTdMOrOy_9PNuUq5TveW-52" value="" style="shape=partialRectangle;html=1;whiteSpace=wrap;collapsible=0;dropTarget=0;pointerEvents=0;fillColor=none;top=0;left=0;bottom=0;right=0;points=[[0,0.5],[1,0.5]];portConstraint=eastwest;" parent="YTdMOrOy_9PNuUq5TveW-41" vertex="1">
          <mxGeometry y="100" width="720" height="70" as="geometry" />
        </mxCell>
        <mxCell id="YTdMOrOy_9PNuUq5TveW-53" value="训练部署" style="shape=partialRectangle;html=1;whiteSpace=wrap;connectable=0;overflow=hidden;fillColor=none;top=0;left=0;bottom=0;right=0;" parent="YTdMOrOy_9PNuUq5TveW-52" vertex="1">
          <mxGeometry width="70" height="70" as="geometry" />
        </mxCell>
        <mxCell id="YTdMOrOy_9PNuUq5TveW-54" value="&lt;b&gt;paddle.jit.save&lt;/b&gt;&lt;br&gt;&lt;font color=&quot;#009900&quot;&gt;(*.pdmodel, *.pdiparams, *pdiparams,info)&lt;/font&gt;" style="shape=partialRectangle;html=1;whiteSpace=wrap;connectable=0;overflow=hidden;fillColor=none;top=0;left=0;bottom=0;right=0;" parent="YTdMOrOy_9PNuUq5TveW-52" vertex="1">
          <mxGeometry x="70" width="190" height="70" as="geometry" />
        </mxCell>
        <mxCell id="YTdMOrOy_9PNuUq5TveW-55" value="&lt;b&gt;paddle.static.save_inference_model&lt;/b&gt;&lt;br&gt;&lt;font color=&quot;#009900&quot;&gt;(*.pdmodel, *.pdiparams)&lt;/font&gt;" style="shape=partialRectangle;html=1;whiteSpace=wrap;connectable=0;overflow=hidden;fillColor=none;top=0;left=0;bottom=0;right=0;" parent="YTdMOrOy_9PNuUq5TveW-52" vertex="1">
          <mxGeometry x="260" width="230" height="70" as="geometry" />
        </mxCell>
        <mxCell id="YTdMOrOy_9PNuUq5TveW-56" value="&lt;b&gt;paddle.Model().save(training=False)&lt;/b&gt;&lt;br&gt;&lt;font color=&quot;#009900&quot;&gt;（静: *.pdmodel, *.pdiparams)&lt;br&gt;（动: *.pdmodel, *.pdiparams, *pdiparams,info)&lt;/font&gt;" style="shape=partialRectangle;html=1;whiteSpace=wrap;connectable=0;overflow=hidden;fillColor=none;top=0;left=0;bottom=0;right=0;" parent="YTdMOrOy_9PNuUq5TveW-52" vertex="1">
          <mxGeometry x="490" width="230" height="70" as="geometry" />
        </mxCell>
        <mxCell id="DGd8fxGHTvp8f4uAHh83-2" value="解决：统一为paddle官方推荐的标准文件后缀" style="text;html=1;strokeColor=none;fillColor=none;align=center;verticalAlign=middle;whiteSpace=wrap;rounded=0;dashed=1;fontColor=#009900;" parent="1" vertex="1">
          <mxGeometry x="30" y="590" width="320" height="20" as="geometry" />
        </mxCell>
      </root>
    </mxGraphModel>
  </diagram>
  <diagram id="1FsQqkTSoeEPBoj7rmE-" name="load-format">
    <mxGraphModel dx="946" dy="613" grid="1" gridSize="10" guides="1" tooltips="1" connect="1" arrows="1" fold="1" page="1" pageScale="1" pageWidth="827" pageHeight="1169" math="0" shadow="0">
      <root>
        <mxCell id="_--g6zr_8hUKSwCfKJKK-0" />
        <mxCell id="_--g6zr_8hUKSwCfKJKK-1" parent="_--g6zr_8hUKSwCfKJKK-0" />
        <mxCell id="rIjoqvmZRXCzbxlgm6ze-1" value="" style="rounded=0;whiteSpace=wrap;html=1;fillColor=none;dashed=1;" parent="_--g6zr_8hUKSwCfKJKK-1" vertex="1">
          <mxGeometry x="377.5" y="310" width="122.5" height="40" as="geometry" />
        </mxCell>
        <mxCell id="rIjoqvmZRXCzbxlgm6ze-2" value="" style="rounded=0;whiteSpace=wrap;html=1;fillColor=none;dashed=1;" parent="_--g6zr_8hUKSwCfKJKK-1" vertex="1">
          <mxGeometry x="377.5" y="380" width="222.5" height="70" as="geometry" />
        </mxCell>
        <mxCell id="rIjoqvmZRXCzbxlgm6ze-13" value="" style="edgeStyle=orthogonalEdgeStyle;rounded=0;orthogonalLoop=1;jettySize=auto;html=1;entryX=0;entryY=0.5;entryDx=0;entryDy=0;" parent="_--g6zr_8hUKSwCfKJKK-1" source="_--g6zr_8hUKSwCfKJKK-3" target="_--g6zr_8hUKSwCfKJKK-6" edge="1">
          <mxGeometry relative="1" as="geometry">
            <Array as="points">
              <mxPoint x="180" y="310" />
              <mxPoint x="180" y="360" />
            </Array>
          </mxGeometry>
        </mxCell>
        <mxCell id="rIjoqvmZRXCzbxlgm6ze-14" style="edgeStyle=orthogonalEdgeStyle;rounded=0;orthogonalLoop=1;jettySize=auto;html=1;exitX=1;exitY=0.5;exitDx=0;exitDy=0;entryX=0;entryY=0.5;entryDx=0;entryDy=0;" parent="_--g6zr_8hUKSwCfKJKK-1" source="_--g6zr_8hUKSwCfKJKK-3" target="_--g6zr_8hUKSwCfKJKK-5" edge="1">
          <mxGeometry relative="1" as="geometry">
            <Array as="points">
              <mxPoint x="180" y="310" />
              <mxPoint x="180" y="250" />
            </Array>
          </mxGeometry>
        </mxCell>
        <mxCell id="_--g6zr_8hUKSwCfKJKK-3" value="输入一个path str&lt;br&gt;（例如：mnist）" style="rounded=0;whiteSpace=wrap;html=1;" parent="_--g6zr_8hUKSwCfKJKK-1" vertex="1">
          <mxGeometry x="60" y="290" width="110" height="40" as="geometry" />
        </mxCell>
        <mxCell id="m3tch2Lxt24eNkFn5ybT-1" style="edgeStyle=orthogonalEdgeStyle;rounded=0;orthogonalLoop=1;jettySize=auto;html=1;exitX=1;exitY=0.5;exitDx=0;exitDy=0;entryX=0;entryY=0.5;entryDx=0;entryDy=0;fontColor=#009900;" parent="_--g6zr_8hUKSwCfKJKK-1" source="_--g6zr_8hUKSwCfKJKK-5" target="rIjoqvmZRXCzbxlgm6ze-0" edge="1">
          <mxGeometry relative="1" as="geometry" />
        </mxCell>
        <mxCell id="_--g6zr_8hUKSwCfKJKK-5" value="save保存得到一个结果" style="rounded=0;whiteSpace=wrap;html=1;" parent="_--g6zr_8hUKSwCfKJKK-1" vertex="1">
          <mxGeometry x="200" y="230" width="150" height="40" as="geometry" />
        </mxCell>
        <mxCell id="m3tch2Lxt24eNkFn5ybT-2" style="edgeStyle=orthogonalEdgeStyle;rounded=0;orthogonalLoop=1;jettySize=auto;html=1;exitX=1;exitY=0.5;exitDx=0;exitDy=0;entryX=0;entryY=0.5;entryDx=0;entryDy=0;fontColor=#009900;" parent="_--g6zr_8hUKSwCfKJKK-1" source="_--g6zr_8hUKSwCfKJKK-6" target="rIjoqvmZRXCzbxlgm6ze-1" edge="1">
          <mxGeometry relative="1" as="geometry">
            <Array as="points">
              <mxPoint x="360" y="360" />
              <mxPoint x="360" y="330" />
            </Array>
          </mxGeometry>
        </mxCell>
        <mxCell id="m3tch2Lxt24eNkFn5ybT-3" style="edgeStyle=orthogonalEdgeStyle;rounded=0;orthogonalLoop=1;jettySize=auto;html=1;exitX=1;exitY=0.5;exitDx=0;exitDy=0;entryX=0;entryY=0.5;entryDx=0;entryDy=0;fontColor=#009900;" parent="_--g6zr_8hUKSwCfKJKK-1" source="_--g6zr_8hUKSwCfKJKK-6" target="rIjoqvmZRXCzbxlgm6ze-2" edge="1">
          <mxGeometry relative="1" as="geometry">
            <Array as="points">
              <mxPoint x="360" y="360" />
              <mxPoint x="360" y="415" />
            </Array>
          </mxGeometry>
        </mxCell>
        <mxCell id="_--g6zr_8hUKSwCfKJKK-6" value="save保存得到多个结果" style="rounded=0;whiteSpace=wrap;html=1;" parent="_--g6zr_8hUKSwCfKJKK-1" vertex="1">
          <mxGeometry x="200" y="340" width="150" height="40" as="geometry" />
        </mxCell>
        <mxCell id="_--g6zr_8hUKSwCfKJKK-7" value="paddle.save" style="text;html=1;strokeColor=none;fillColor=none;align=center;verticalAlign=middle;whiteSpace=wrap;rounded=0;" parent="_--g6zr_8hUKSwCfKJKK-1" vertex="1">
          <mxGeometry x="364" y="240" width="120" height="20" as="geometry" />
        </mxCell>
        <mxCell id="_--g6zr_8hUKSwCfKJKK-8" value="paddle.static.save" style="text;html=1;strokeColor=none;fillColor=none;align=center;verticalAlign=middle;whiteSpace=wrap;rounded=0;" parent="_--g6zr_8hUKSwCfKJKK-1" vertex="1">
          <mxGeometry x="398.75" y="320" width="80" height="20" as="geometry" />
        </mxCell>
        <mxCell id="_--g6zr_8hUKSwCfKJKK-11" value="paddle.static.save_inference_model" style="text;html=1;strokeColor=none;fillColor=none;align=center;verticalAlign=middle;whiteSpace=wrap;rounded=0;" parent="_--g6zr_8hUKSwCfKJKK-1" vertex="1">
          <mxGeometry x="377.5" y="390" width="220" height="20" as="geometry" />
        </mxCell>
        <mxCell id="_--g6zr_8hUKSwCfKJKK-12" value="paddle.jit.save" style="text;html=1;strokeColor=none;fillColor=none;align=center;verticalAlign=middle;whiteSpace=wrap;rounded=0;" parent="_--g6zr_8hUKSwCfKJKK-1" vertex="1">
          <mxGeometry x="380.5" y="420" width="100" height="20" as="geometry" />
        </mxCell>
        <mxCell id="rIjoqvmZRXCzbxlgm6ze-0" value="" style="rounded=0;whiteSpace=wrap;html=1;fillColor=none;dashed=1;" parent="_--g6zr_8hUKSwCfKJKK-1" vertex="1">
          <mxGeometry x="377.5" y="230" width="93" height="40" as="geometry" />
        </mxCell>
        <mxCell id="rIjoqvmZRXCzbxlgm6ze-5" value="mnist.pdparams/pdopt, 框架根据输入的性质，自动为mnist添加pdparams或者pdopt的后缀" style="text;html=1;strokeColor=none;fillColor=none;align=center;verticalAlign=middle;whiteSpace=wrap;rounded=0;dashed=1;fontStyle=1" parent="_--g6zr_8hUKSwCfKJKK-1" vertex="1">
          <mxGeometry x="484" y="240" width="186" height="20" as="geometry" />
        </mxCell>
        <mxCell id="rIjoqvmZRXCzbxlgm6ze-6" value="mnist.pdmodel, mnist.pdparams, mnist.pdopt" style="text;html=1;strokeColor=none;fillColor=none;align=left;verticalAlign=middle;whiteSpace=wrap;rounded=0;dashed=1;fontStyle=1" parent="_--g6zr_8hUKSwCfKJKK-1" vertex="1">
          <mxGeometry x="515" y="305" width="120" height="50" as="geometry" />
        </mxCell>
        <mxCell id="rIjoqvmZRXCzbxlgm6ze-8" value="mnist (dir)&lt;br&gt;&amp;nbsp; &amp;nbsp;- __model__&lt;br&gt;&amp;nbsp; &amp;nbsp;- 零散参数文件 or __variables__" style="text;html=1;strokeColor=none;fillColor=none;align=left;verticalAlign=middle;whiteSpace=wrap;rounded=0;dashed=1;fontStyle=1" parent="_--g6zr_8hUKSwCfKJKK-1" vertex="1">
          <mxGeometry x="617" y="390" width="210" height="50" as="geometry" />
        </mxCell>
        <mxCell id="rIjoqvmZRXCzbxlgm6ze-11" value="" style="whiteSpace=wrap;html=1;shape=mxgraph.basic.cloud_callout;dashed=1;fillColor=none;" parent="_--g6zr_8hUKSwCfKJKK-1" vertex="1">
          <mxGeometry x="607" y="90" width="220" height="130" as="geometry" />
        </mxCell>
        <mxCell id="rIjoqvmZRXCzbxlgm6ze-12" value="&lt;span style=&quot;font-family: &amp;#34;helvetica&amp;#34; ; font-size: 12px ; font-style: normal ; font-weight: 400 ; letter-spacing: normal ; text-align: center ; text-indent: 0px ; text-transform: none ; word-spacing: 0px ; background-color: rgb(248 , 249 , 250) ; display: inline ; float: none&quot;&gt;一个path与一个存储结果对应，无歧义，但是增加后缀引入了歧义，用户输入同一个path可能得到多个存储结果&lt;/span&gt;" style="text;whiteSpace=wrap;html=1;fontColor=#CC0000;" parent="_--g6zr_8hUKSwCfKJKK-1" vertex="1">
          <mxGeometry x="642" y="110" width="160" height="67" as="geometry" />
        </mxCell>
        <mxCell id="rIjoqvmZRXCzbxlgm6ze-15" value="" style="whiteSpace=wrap;html=1;shape=mxgraph.basic.cloud_callout;dashed=1;fillColor=none;" parent="_--g6zr_8hUKSwCfKJKK-1" vertex="1">
          <mxGeometry x="660" y="240" width="150" height="100" as="geometry" />
        </mxCell>
        <mxCell id="rIjoqvmZRXCzbxlgm6ze-16" value="&lt;div style=&quot;text-align: center&quot;&gt;&lt;span&gt;&lt;font face=&quot;helvetica&quot;&gt;用不同的后缀区分多个存储结果&lt;/font&gt;&lt;/span&gt;&lt;/div&gt;" style="text;whiteSpace=wrap;html=1;fontColor=#CC0000;" parent="_--g6zr_8hUKSwCfKJKK-1" vertex="1">
          <mxGeometry x="686" y="263" width="98" height="67" as="geometry" />
        </mxCell>
        <mxCell id="rIjoqvmZRXCzbxlgm6ze-17" value="" style="whiteSpace=wrap;html=1;shape=mxgraph.basic.cloud_callout;dashed=1;fillColor=none;" parent="_--g6zr_8hUKSwCfKJKK-1" vertex="1">
          <mxGeometry x="740" y="310" width="150" height="100" as="geometry" />
        </mxCell>
        <mxCell id="rIjoqvmZRXCzbxlgm6ze-18" value="&lt;div style=&quot;text-align: center&quot;&gt;&lt;span&gt;&lt;font face=&quot;helvetica&quot;&gt;用文件夹保存多个存储结果&lt;/font&gt;&lt;/span&gt;&lt;/div&gt;" style="text;whiteSpace=wrap;html=1;fontColor=#CC0000;" parent="_--g6zr_8hUKSwCfKJKK-1" vertex="1">
          <mxGeometry x="766" y="330" width="98" height="67" as="geometry" />
        </mxCell>
        <mxCell id="VQdTw2ZZXU-8u8f7xRVG-1" value="同一种行为框架内存在两种不同的处理方式！" style="text;html=1;strokeColor=none;fillColor=none;align=center;verticalAlign=middle;whiteSpace=wrap;rounded=0;dashed=1;fontColor=#CC0000;" parent="_--g6zr_8hUKSwCfKJKK-1" vertex="1">
          <mxGeometry x="210" y="390" width="130" height="40" as="geometry" />
        </mxCell>
        <mxCell id="m3tch2Lxt24eNkFn5ybT-0" value="问题：对于save不同场景的处理方式比较混乱，容易令用户困惑" style="text;html=1;strokeColor=none;fillColor=none;align=center;verticalAlign=middle;whiteSpace=wrap;rounded=0;dashed=1;fontColor=#CC0000;" parent="_--g6zr_8hUKSwCfKJKK-1" vertex="1">
          <mxGeometry x="51" y="190" width="362.5" height="20" as="geometry" />
        </mxCell>
        <mxCell id="fJvH3nHegxKUPIU_RAN3-1" value="" style="rounded=0;whiteSpace=wrap;html=1;fillColor=none;dashed=1;" parent="_--g6zr_8hUKSwCfKJKK-1" vertex="1">
          <mxGeometry x="416.5" y="675" width="222.5" height="100" as="geometry" />
        </mxCell>
        <mxCell id="fJvH3nHegxKUPIU_RAN3-2" value="" style="edgeStyle=orthogonalEdgeStyle;rounded=0;orthogonalLoop=1;jettySize=auto;html=1;entryX=0;entryY=0.5;entryDx=0;entryDy=0;" parent="_--g6zr_8hUKSwCfKJKK-1" source="fJvH3nHegxKUPIU_RAN3-4" target="fJvH3nHegxKUPIU_RAN3-9" edge="1">
          <mxGeometry relative="1" as="geometry">
            <Array as="points">
              <mxPoint x="219" y="670" />
              <mxPoint x="219" y="720" />
            </Array>
          </mxGeometry>
        </mxCell>
        <mxCell id="fJvH3nHegxKUPIU_RAN3-3" style="edgeStyle=orthogonalEdgeStyle;rounded=0;orthogonalLoop=1;jettySize=auto;html=1;exitX=1;exitY=0.5;exitDx=0;exitDy=0;entryX=0;entryY=0.5;entryDx=0;entryDy=0;" parent="_--g6zr_8hUKSwCfKJKK-1" source="fJvH3nHegxKUPIU_RAN3-4" target="fJvH3nHegxKUPIU_RAN3-6" edge="1">
          <mxGeometry relative="1" as="geometry">
            <Array as="points">
              <mxPoint x="219" y="670" />
              <mxPoint x="219" y="610" />
            </Array>
          </mxGeometry>
        </mxCell>
        <mxCell id="fJvH3nHegxKUPIU_RAN3-4" value="输入一个path str&lt;br&gt;（例如：mnist）" style="rounded=0;whiteSpace=wrap;html=1;" parent="_--g6zr_8hUKSwCfKJKK-1" vertex="1">
          <mxGeometry x="99" y="650" width="110" height="40" as="geometry" />
        </mxCell>
        <mxCell id="fJvH3nHegxKUPIU_RAN3-5" style="edgeStyle=orthogonalEdgeStyle;rounded=0;orthogonalLoop=1;jettySize=auto;html=1;exitX=1;exitY=0.5;exitDx=0;exitDy=0;entryX=0;entryY=0.5;entryDx=0;entryDy=0;fontColor=#009900;" parent="_--g6zr_8hUKSwCfKJKK-1" source="fJvH3nHegxKUPIU_RAN3-6" target="fJvH3nHegxKUPIU_RAN3-14" edge="1">
          <mxGeometry relative="1" as="geometry" />
        </mxCell>
        <mxCell id="fJvH3nHegxKUPIU_RAN3-6" value="save保存得到一个结果" style="rounded=0;whiteSpace=wrap;html=1;" parent="_--g6zr_8hUKSwCfKJKK-1" vertex="1">
          <mxGeometry x="239" y="590" width="150" height="40" as="geometry" />
        </mxCell>
        <mxCell id="fJvH3nHegxKUPIU_RAN3-27" style="edgeStyle=orthogonalEdgeStyle;rounded=0;orthogonalLoop=1;jettySize=auto;html=1;exitX=1;exitY=0.5;exitDx=0;exitDy=0;fontColor=#009900;entryX=0;entryY=0.5;entryDx=0;entryDy=0;" parent="_--g6zr_8hUKSwCfKJKK-1" source="fJvH3nHegxKUPIU_RAN3-9" target="fJvH3nHegxKUPIU_RAN3-12" edge="1">
          <mxGeometry relative="1" as="geometry">
            <mxPoint x="390" y="760" as="targetPoint" />
            <Array as="points" />
          </mxGeometry>
        </mxCell>
        <mxCell id="fJvH3nHegxKUPIU_RAN3-9" value="save保存得到多个结果" style="rounded=0;whiteSpace=wrap;html=1;" parent="_--g6zr_8hUKSwCfKJKK-1" vertex="1">
          <mxGeometry x="239" y="700" width="150" height="40" as="geometry" />
        </mxCell>
        <mxCell id="fJvH3nHegxKUPIU_RAN3-10" value="paddle.save" style="text;html=1;strokeColor=none;fillColor=none;align=center;verticalAlign=middle;whiteSpace=wrap;rounded=0;" parent="_--g6zr_8hUKSwCfKJKK-1" vertex="1">
          <mxGeometry x="403" y="600" width="120" height="20" as="geometry" />
        </mxCell>
        <mxCell id="fJvH3nHegxKUPIU_RAN3-11" value="paddle.static.save" style="text;html=1;strokeColor=none;fillColor=none;align=center;verticalAlign=middle;whiteSpace=wrap;rounded=0;" parent="_--g6zr_8hUKSwCfKJKK-1" vertex="1">
          <mxGeometry x="439.5" y="680" width="80" height="20" as="geometry" />
        </mxCell>
        <mxCell id="fJvH3nHegxKUPIU_RAN3-12" value="paddle.static.save_inference_model" style="text;html=1;strokeColor=none;fillColor=none;align=center;verticalAlign=middle;whiteSpace=wrap;rounded=0;" parent="_--g6zr_8hUKSwCfKJKK-1" vertex="1">
          <mxGeometry x="416.5" y="710" width="220" height="20" as="geometry" />
        </mxCell>
        <mxCell id="fJvH3nHegxKUPIU_RAN3-13" value="paddle.jit.save" style="text;html=1;strokeColor=none;fillColor=none;align=center;verticalAlign=middle;whiteSpace=wrap;rounded=0;" parent="_--g6zr_8hUKSwCfKJKK-1" vertex="1">
          <mxGeometry x="419.5" y="740" width="100" height="20" as="geometry" />
        </mxCell>
        <mxCell id="fJvH3nHegxKUPIU_RAN3-14" value="" style="rounded=0;whiteSpace=wrap;html=1;fillColor=none;dashed=1;" parent="_--g6zr_8hUKSwCfKJKK-1" vertex="1">
          <mxGeometry x="416.5" y="590" width="93" height="40" as="geometry" />
        </mxCell>
        <mxCell id="fJvH3nHegxKUPIU_RAN3-15" value="mnist, 建议用户自己添加标准后缀，输入mnist.params或者mnist.pdopt" style="text;html=1;strokeColor=none;fillColor=none;align=center;verticalAlign=middle;whiteSpace=wrap;rounded=0;dashed=1;fontStyle=1" parent="_--g6zr_8hUKSwCfKJKK-1" vertex="1">
          <mxGeometry x="523" y="600" width="156" height="20" as="geometry" />
        </mxCell>
        <mxCell id="fJvH3nHegxKUPIU_RAN3-16" value="mnist.pdmodel, mnist.pdparams, mnist.pdopt&lt;br&gt;mnist.pdiparams" style="text;html=1;strokeColor=none;fillColor=none;align=left;verticalAlign=middle;whiteSpace=wrap;rounded=0;dashed=1;fontStyle=1" parent="_--g6zr_8hUKSwCfKJKK-1" vertex="1">
          <mxGeometry x="659" y="700" width="120" height="50" as="geometry" />
        </mxCell>
        <mxCell id="fJvH3nHegxKUPIU_RAN3-18" value="" style="whiteSpace=wrap;html=1;shape=mxgraph.basic.cloud_callout;dashed=1;fillColor=none;" parent="_--g6zr_8hUKSwCfKJKK-1" vertex="1">
          <mxGeometry x="639" y="490" width="180" height="90" as="geometry" />
        </mxCell>
        <mxCell id="fJvH3nHegxKUPIU_RAN3-19" value="&lt;span style=&quot;font-family: &amp;quot;helvetica&amp;quot; ; font-size: 12px ; font-style: normal ; font-weight: 400 ; letter-spacing: normal ; text-align: center ; text-indent: 0px ; text-transform: none ; word-spacing: 0px ; background-color: rgb(248 , 249 , 250) ; display: inline ; float: none&quot;&gt;一个path与一个存储结果对应，无歧义&lt;/span&gt;" style="text;whiteSpace=wrap;html=1;fontColor=#009900;" parent="_--g6zr_8hUKSwCfKJKK-1" vertex="1">
          <mxGeometry x="674" y="504" width="115" height="50" as="geometry" />
        </mxCell>
        <mxCell id="fJvH3nHegxKUPIU_RAN3-20" value="" style="whiteSpace=wrap;html=1;shape=mxgraph.basic.cloud_callout;dashed=1;fillColor=none;" parent="_--g6zr_8hUKSwCfKJKK-1" vertex="1">
          <mxGeometry x="699" y="590" width="150" height="100" as="geometry" />
        </mxCell>
        <mxCell id="fJvH3nHegxKUPIU_RAN3-21" value="&lt;div style=&quot;text-align: center&quot;&gt;&lt;span&gt;&lt;font face=&quot;helvetica&quot;&gt;仅用不同的后缀区分多个存储结果&lt;/font&gt;&lt;/span&gt;&lt;/div&gt;" style="text;whiteSpace=wrap;html=1;fontColor=#009900;" parent="_--g6zr_8hUKSwCfKJKK-1" vertex="1">
          <mxGeometry x="725" y="613" width="98" height="67" as="geometry" />
        </mxCell>
        <mxCell id="fJvH3nHegxKUPIU_RAN3-25" value="解决：统一save不同场景的处理方式，并确保合理" style="text;html=1;strokeColor=none;fillColor=none;align=center;verticalAlign=middle;whiteSpace=wrap;rounded=0;dashed=1;fontColor=#009900;" parent="_--g6zr_8hUKSwCfKJKK-1" vertex="1">
          <mxGeometry x="90" y="550" width="289" height="20" as="geometry" />
        </mxCell>
        <mxCell id="2mEGmgauDiXcbPztRGAL-0" value="" style="shape=flexArrow;endArrow=classic;html=1;width=16;endSize=6.67;" parent="_--g6zr_8hUKSwCfKJKK-1" edge="1">
          <mxGeometry width="50" height="50" relative="1" as="geometry">
            <mxPoint x="450" y="480" as="sourcePoint" />
            <mxPoint x="450" y="520" as="targetPoint" />
          </mxGeometry>
        </mxCell>
      </root>
    </mxGraphModel>
  </diagram>
  <diagram id="hKJiyr6bbH5L83m79WK7" name="save-load-result">
    <mxGraphModel dx="946" dy="613" grid="1" gridSize="10" guides="1" tooltips="1" connect="1" arrows="1" fold="1" page="1" pageScale="1" pageWidth="827" pageHeight="1169" math="0" shadow="0">
      <root>
        <mxCell id="Symry-7J2HXb4_KwKvQ--0" />
        <mxCell id="Symry-7J2HXb4_KwKvQ--1" parent="Symry-7J2HXb4_KwKvQ--0" />
        <mxCell id="yaItWun5bHAh-s6izioV-12" value="" style="rounded=0;whiteSpace=wrap;html=1;fillColor=none;dashed=1;fontStyle=0" parent="Symry-7J2HXb4_KwKvQ--1" vertex="1">
          <mxGeometry x="366.5" y="170" width="93" height="40" as="geometry" />
        </mxCell>
        <mxCell id="yaItWun5bHAh-s6izioV-0" value="" style="rounded=0;whiteSpace=wrap;html=1;fillColor=none;dashed=1;" parent="Symry-7J2HXb4_KwKvQ--1" vertex="1">
          <mxGeometry x="366.5" y="243" width="222.5" height="128" as="geometry" />
        </mxCell>
        <mxCell id="yaItWun5bHAh-s6izioV-1" value="" style="edgeStyle=orthogonalEdgeStyle;rounded=0;orthogonalLoop=1;jettySize=auto;html=1;entryX=0;entryY=0.5;entryDx=0;entryDy=0;" parent="Symry-7J2HXb4_KwKvQ--1" source="yaItWun5bHAh-s6izioV-3" target="yaItWun5bHAh-s6izioV-7" edge="1">
          <mxGeometry relative="1" as="geometry">
            <Array as="points">
              <mxPoint x="169" y="250" />
              <mxPoint x="169" y="307" />
            </Array>
          </mxGeometry>
        </mxCell>
        <mxCell id="yaItWun5bHAh-s6izioV-2" style="edgeStyle=orthogonalEdgeStyle;rounded=0;orthogonalLoop=1;jettySize=auto;html=1;exitX=1;exitY=0.5;exitDx=0;exitDy=0;entryX=0;entryY=0.5;entryDx=0;entryDy=0;" parent="Symry-7J2HXb4_KwKvQ--1" source="yaItWun5bHAh-s6izioV-3" target="yaItWun5bHAh-s6izioV-5" edge="1">
          <mxGeometry relative="1" as="geometry">
            <Array as="points">
              <mxPoint x="169" y="250" />
              <mxPoint x="169" y="190" />
            </Array>
          </mxGeometry>
        </mxCell>
        <mxCell id="yaItWun5bHAh-s6izioV-3" value="输入一个path str&lt;br&gt;（例如：输入mnist）" style="rounded=0;whiteSpace=wrap;html=1;" parent="Symry-7J2HXb4_KwKvQ--1" vertex="1">
          <mxGeometry x="40" y="230" width="119" height="40" as="geometry" />
        </mxCell>
        <mxCell id="yaItWun5bHAh-s6izioV-4" style="edgeStyle=orthogonalEdgeStyle;rounded=0;orthogonalLoop=1;jettySize=auto;html=1;exitX=1;exitY=0.5;exitDx=0;exitDy=0;entryX=0;entryY=0.5;entryDx=0;entryDy=0;fontColor=#009900;" parent="Symry-7J2HXb4_KwKvQ--1" source="yaItWun5bHAh-s6izioV-5" target="yaItWun5bHAh-s6izioV-12" edge="1">
          <mxGeometry relative="1" as="geometry" />
        </mxCell>
        <mxCell id="yaItWun5bHAh-s6izioV-5" value="save保存得到一个结果" style="rounded=0;whiteSpace=wrap;html=1;" parent="Symry-7J2HXb4_KwKvQ--1" vertex="1">
          <mxGeometry x="189" y="170" width="150" height="40" as="geometry" />
        </mxCell>
        <mxCell id="yaItWun5bHAh-s6izioV-24" style="edgeStyle=orthogonalEdgeStyle;rounded=0;orthogonalLoop=1;jettySize=auto;html=1;exitX=1;exitY=0.5;exitDx=0;exitDy=0;entryX=0;entryY=0.5;entryDx=0;entryDy=0;" parent="Symry-7J2HXb4_KwKvQ--1" source="yaItWun5bHAh-s6izioV-7" target="yaItWun5bHAh-s6izioV-0" edge="1">
          <mxGeometry relative="1" as="geometry" />
        </mxCell>
        <mxCell id="yaItWun5bHAh-s6izioV-7" value="save保存得到多个结果" style="rounded=0;whiteSpace=wrap;html=1;" parent="Symry-7J2HXb4_KwKvQ--1" vertex="1">
          <mxGeometry x="189" y="287" width="150" height="40" as="geometry" />
        </mxCell>
        <mxCell id="yaItWun5bHAh-s6izioV-8" value="paddle.save" style="text;html=1;strokeColor=none;fillColor=none;align=center;verticalAlign=middle;whiteSpace=wrap;rounded=0;fontStyle=1" parent="Symry-7J2HXb4_KwKvQ--1" vertex="1">
          <mxGeometry x="353" y="180" width="120" height="20" as="geometry" />
        </mxCell>
        <mxCell id="yaItWun5bHAh-s6izioV-9" value="paddle.static.save" style="text;html=1;strokeColor=none;fillColor=none;align=center;verticalAlign=middle;whiteSpace=wrap;rounded=0;" parent="Symry-7J2HXb4_KwKvQ--1" vertex="1">
          <mxGeometry x="389.5" y="308" width="80" height="20" as="geometry" />
        </mxCell>
        <mxCell id="yaItWun5bHAh-s6izioV-10" value="paddle.static.save_inference_model" style="text;html=1;strokeColor=none;fillColor=none;align=center;verticalAlign=middle;whiteSpace=wrap;rounded=0;" parent="Symry-7J2HXb4_KwKvQ--1" vertex="1">
          <mxGeometry x="366.5" y="338" width="220" height="20" as="geometry" />
        </mxCell>
        <mxCell id="yaItWun5bHAh-s6izioV-11" value="paddle.jit.save" style="text;html=1;strokeColor=none;fillColor=none;align=center;verticalAlign=middle;whiteSpace=wrap;rounded=0;fontStyle=1" parent="Symry-7J2HXb4_KwKvQ--1" vertex="1">
          <mxGeometry x="369.5" y="250" width="100" height="20" as="geometry" />
        </mxCell>
        <mxCell id="yaItWun5bHAh-s6izioV-13" value="存储文件名：mnist,&lt;br&gt;建议添加标准后缀，输入mnist.params或者mnist.pdopt" style="text;html=1;strokeColor=none;fillColor=none;align=left;verticalAlign=middle;whiteSpace=wrap;rounded=0;dashed=1;fontStyle=1" parent="Symry-7J2HXb4_KwKvQ--1" vertex="1">
          <mxGeometry x="477" y="162" width="187" height="55" as="geometry" />
        </mxCell>
        <mxCell id="yaItWun5bHAh-s6izioV-14" value="mnist.pdmodel, mnist.pdparams,&amp;nbsp;&lt;br&gt;mnist.pdiparams,&lt;br&gt;mnist.pdopt" style="text;html=1;strokeColor=none;fillColor=none;align=left;verticalAlign=middle;whiteSpace=wrap;rounded=0;dashed=1;fontStyle=1" parent="Symry-7J2HXb4_KwKvQ--1" vertex="1">
          <mxGeometry x="609" y="280" width="120" height="50" as="geometry" />
        </mxCell>
        <mxCell id="yaItWun5bHAh-s6izioV-15" value="" style="whiteSpace=wrap;html=1;shape=mxgraph.basic.cloud_callout;dashed=1;fillColor=none;" parent="Symry-7J2HXb4_KwKvQ--1" vertex="1">
          <mxGeometry x="589" y="70" width="180" height="90" as="geometry" />
        </mxCell>
        <mxCell id="yaItWun5bHAh-s6izioV-16" value="&lt;span style=&quot;font-family: &amp;quot;helvetica&amp;quot; ; font-size: 12px ; font-style: normal ; font-weight: 400 ; letter-spacing: normal ; text-align: center ; text-indent: 0px ; text-transform: none ; word-spacing: 0px ; background-color: rgb(248 , 249 , 250) ; display: inline ; float: none&quot;&gt;一个path与一个存储结果对应，无歧义&lt;/span&gt;" style="text;whiteSpace=wrap;html=1;" parent="Symry-7J2HXb4_KwKvQ--1" vertex="1">
          <mxGeometry x="624" y="84" width="115" height="50" as="geometry" />
        </mxCell>
        <mxCell id="yaItWun5bHAh-s6izioV-17" value="" style="whiteSpace=wrap;html=1;shape=mxgraph.basic.cloud_callout;dashed=1;fillColor=none;" parent="Symry-7J2HXb4_KwKvQ--1" vertex="1">
          <mxGeometry x="653" y="170" width="150" height="100" as="geometry" />
        </mxCell>
        <mxCell id="yaItWun5bHAh-s6izioV-18" value="&lt;div style=&quot;text-align: center&quot;&gt;&lt;span&gt;&lt;font face=&quot;helvetica&quot;&gt;仅用不同的后缀区分多个存储结果&lt;/font&gt;&lt;/span&gt;&lt;/div&gt;" style="text;whiteSpace=wrap;html=1;" parent="Symry-7J2HXb4_KwKvQ--1" vertex="1">
          <mxGeometry x="679" y="193" width="98" height="67" as="geometry" />
        </mxCell>
        <mxCell id="yaItWun5bHAh-s6izioV-21" value="paddle.Model().save" style="text;html=1;strokeColor=none;fillColor=none;align=center;verticalAlign=middle;whiteSpace=wrap;rounded=0;" parent="Symry-7J2HXb4_KwKvQ--1" vertex="1">
          <mxGeometry x="369.5" y="280" width="130.5" height="20" as="geometry" />
        </mxCell>
        <mxCell id="yaItWun5bHAh-s6izioV-25" value="Paddle 2.0 Save结果组织方法" style="text;html=1;strokeColor=none;fillColor=none;align=center;verticalAlign=middle;whiteSpace=wrap;rounded=0;fontColor=#000000;fontStyle=1;fontSize=14;" parent="Symry-7J2HXb4_KwKvQ--1" vertex="1">
          <mxGeometry x="70" y="114" width="201" height="20" as="geometry" />
        </mxCell>
        <mxCell id="yaItWun5bHAh-s6izioV-26" value="Paddle 2.0 各Save接口存储结果后缀表" style="text;html=1;strokeColor=none;fillColor=none;align=center;verticalAlign=middle;whiteSpace=wrap;rounded=0;fontColor=#000000;fontStyle=1;fontSize=14;" parent="Symry-7J2HXb4_KwKvQ--1" vertex="1">
          <mxGeometry x="60" y="400" width="270" height="20" as="geometry" />
        </mxCell>
        <mxCell id="k8kERkoAR9KFiyBHN5yb-0" value="" style="shape=table;html=1;whiteSpace=wrap;startSize=0;container=1;collapsible=0;childLayout=tableLayout;" parent="Symry-7J2HXb4_KwKvQ--1" vertex="1">
          <mxGeometry x="70" y="450" width="720" height="170" as="geometry" />
        </mxCell>
        <mxCell id="k8kERkoAR9KFiyBHN5yb-1" value="" style="shape=partialRectangle;html=1;whiteSpace=wrap;collapsible=0;dropTarget=0;pointerEvents=0;fillColor=none;top=0;left=0;bottom=0;right=0;points=[[0,0.5],[1,0.5]];portConstraint=eastwest;" parent="k8kERkoAR9KFiyBHN5yb-0" vertex="1">
          <mxGeometry width="720" height="40" as="geometry" />
        </mxCell>
        <mxCell id="k8kERkoAR9KFiyBHN5yb-2" value="" style="shape=partialRectangle;html=1;whiteSpace=wrap;connectable=0;overflow=hidden;fillColor=none;top=0;left=0;bottom=0;right=0;fontStyle=1" parent="k8kERkoAR9KFiyBHN5yb-1" vertex="1">
          <mxGeometry width="70" height="40" as="geometry" />
        </mxCell>
        <mxCell id="k8kERkoAR9KFiyBHN5yb-3" value="动态图" style="shape=partialRectangle;html=1;whiteSpace=wrap;connectable=0;overflow=hidden;fillColor=none;top=0;left=0;bottom=0;right=0;" parent="k8kERkoAR9KFiyBHN5yb-1" vertex="1">
          <mxGeometry x="70" width="190" height="40" as="geometry" />
        </mxCell>
        <mxCell id="k8kERkoAR9KFiyBHN5yb-4" value="静态图" style="shape=partialRectangle;html=1;whiteSpace=wrap;connectable=0;overflow=hidden;fillColor=none;top=0;left=0;bottom=0;right=0;" parent="k8kERkoAR9KFiyBHN5yb-1" vertex="1">
          <mxGeometry x="260" width="230" height="40" as="geometry" />
        </mxCell>
        <mxCell id="k8kERkoAR9KFiyBHN5yb-5" value="高层API（调用前述4个API）" style="shape=partialRectangle;html=1;whiteSpace=wrap;connectable=0;overflow=hidden;fillColor=none;top=0;left=0;bottom=0;right=0;" parent="k8kERkoAR9KFiyBHN5yb-1" vertex="1">
          <mxGeometry x="490" width="230" height="40" as="geometry" />
        </mxCell>
        <mxCell id="k8kERkoAR9KFiyBHN5yb-6" value="" style="shape=partialRectangle;html=1;whiteSpace=wrap;collapsible=0;dropTarget=0;pointerEvents=0;fillColor=none;top=0;left=0;bottom=0;right=0;points=[[0,0.5],[1,0.5]];portConstraint=eastwest;" parent="k8kERkoAR9KFiyBHN5yb-0" vertex="1">
          <mxGeometry y="40" width="720" height="60" as="geometry" />
        </mxCell>
        <mxCell id="k8kERkoAR9KFiyBHN5yb-7" value="训练调优" style="shape=partialRectangle;html=1;whiteSpace=wrap;connectable=0;overflow=hidden;fillColor=none;top=0;left=0;bottom=0;right=0;" parent="k8kERkoAR9KFiyBHN5yb-6" vertex="1">
          <mxGeometry width="70" height="60" as="geometry" />
        </mxCell>
        <mxCell id="k8kERkoAR9KFiyBHN5yb-8" value="&lt;b&gt;paddle.save&lt;/b&gt;&lt;br&gt;(推荐: *.pdparams, *pdopt)" style="shape=partialRectangle;html=1;whiteSpace=wrap;connectable=0;overflow=hidden;fillColor=none;top=0;left=0;bottom=0;right=0;" parent="k8kERkoAR9KFiyBHN5yb-6" vertex="1">
          <mxGeometry x="70" width="190" height="60" as="geometry" />
        </mxCell>
        <mxCell id="k8kERkoAR9KFiyBHN5yb-9" value="paddle.static.save&lt;br&gt;(*.pdmodel, *.pdparams, *.pdopt)" style="shape=partialRectangle;html=1;whiteSpace=wrap;connectable=0;overflow=hidden;fillColor=none;top=0;left=0;bottom=0;right=0;" parent="k8kERkoAR9KFiyBHN5yb-6" vertex="1">
          <mxGeometry x="260" width="230" height="60" as="geometry" />
        </mxCell>
        <mxCell id="k8kERkoAR9KFiyBHN5yb-10" value="paddle.Model().save(training=True)&lt;br&gt;（静: *.pdmodel, *.pdparams, *.pdopt)&lt;br&gt;(动: *.pdparams, *.pdopt)" style="shape=partialRectangle;html=1;whiteSpace=wrap;connectable=0;overflow=hidden;fillColor=none;top=0;left=0;bottom=0;right=0;" parent="k8kERkoAR9KFiyBHN5yb-6" vertex="1">
          <mxGeometry x="490" width="230" height="60" as="geometry" />
        </mxCell>
        <mxCell id="k8kERkoAR9KFiyBHN5yb-11" value="" style="shape=partialRectangle;html=1;whiteSpace=wrap;collapsible=0;dropTarget=0;pointerEvents=0;fillColor=none;top=0;left=0;bottom=0;right=0;points=[[0,0.5],[1,0.5]];portConstraint=eastwest;" parent="k8kERkoAR9KFiyBHN5yb-0" vertex="1">
          <mxGeometry y="100" width="720" height="70" as="geometry" />
        </mxCell>
        <mxCell id="k8kERkoAR9KFiyBHN5yb-12" value="训练部署" style="shape=partialRectangle;html=1;whiteSpace=wrap;connectable=0;overflow=hidden;fillColor=none;top=0;left=0;bottom=0;right=0;" parent="k8kERkoAR9KFiyBHN5yb-11" vertex="1">
          <mxGeometry width="70" height="70" as="geometry" />
        </mxCell>
        <mxCell id="k8kERkoAR9KFiyBHN5yb-13" value="&lt;b&gt;paddle.jit.save&lt;/b&gt;&lt;br&gt;&lt;font&gt;(*.pdmodel, *.pdiparams, *pdiparams,info)&lt;/font&gt;" style="shape=partialRectangle;html=1;whiteSpace=wrap;connectable=0;overflow=hidden;fillColor=none;top=0;left=0;bottom=0;right=0;" parent="k8kERkoAR9KFiyBHN5yb-11" vertex="1">
          <mxGeometry x="70" width="190" height="70" as="geometry" />
        </mxCell>
        <mxCell id="k8kERkoAR9KFiyBHN5yb-14" value="paddle.static.save_inference_model&lt;br&gt;&lt;font&gt;(*.pdmodel, *.pdiparams)&lt;/font&gt;" style="shape=partialRectangle;html=1;whiteSpace=wrap;connectable=0;overflow=hidden;fillColor=none;top=0;left=0;bottom=0;right=0;" parent="k8kERkoAR9KFiyBHN5yb-11" vertex="1">
          <mxGeometry x="260" width="230" height="70" as="geometry" />
        </mxCell>
        <mxCell id="k8kERkoAR9KFiyBHN5yb-15" value="paddle.Model().save(training=False)&lt;br&gt;&lt;font&gt;（静: *.pdmodel, *.pdiparams)&lt;br&gt;（动: *.pdmodel, *.pdiparams, *pdiparams,info)&lt;/font&gt;" style="shape=partialRectangle;html=1;whiteSpace=wrap;connectable=0;overflow=hidden;fillColor=none;top=0;left=0;bottom=0;right=0;" parent="k8kERkoAR9KFiyBHN5yb-11" vertex="1">
          <mxGeometry x="490" width="230" height="70" as="geometry" />
        </mxCell>
      </root>
    </mxGraphModel>
  </diagram>
  <diagram id="e65R4UbMAuTafwQBtGA-" name="save-load-sys-2.1">
    <mxGraphModel dx="2404" dy="2191" grid="1" gridSize="10" guides="1" tooltips="1" connect="1" arrows="1" fold="1" page="1" pageScale="1" pageWidth="827" pageHeight="1169" math="0" shadow="0">
      <root>
        <mxCell id="IqiYwdcGuuer1LMKlhtB-0" />
        <mxCell id="IqiYwdcGuuer1LMKlhtB-1" parent="IqiYwdcGuuer1LMKlhtB-0" />
        <mxCell id="-KH-w43nPv-_DPD-mbIj-49" style="edgeStyle=orthogonalEdgeStyle;rounded=0;orthogonalLoop=1;jettySize=auto;html=1;exitX=1;exitY=0.5;exitDx=0;exitDy=0;entryX=0;entryY=0.5;entryDx=0;entryDy=0;fontSize=15;" edge="1" parent="IqiYwdcGuuer1LMKlhtB-1" source="-KH-w43nPv-_DPD-mbIj-27" target="-KH-w43nPv-_DPD-mbIj-33">
          <mxGeometry relative="1" as="geometry" />
        </mxCell>
        <mxCell id="-KH-w43nPv-_DPD-mbIj-50" style="edgeStyle=orthogonalEdgeStyle;rounded=0;orthogonalLoop=1;jettySize=auto;html=1;exitX=1;exitY=0.5;exitDx=0;exitDy=0;entryX=0;entryY=0.5;entryDx=0;entryDy=0;fontSize=15;" edge="1" parent="IqiYwdcGuuer1LMKlhtB-1" source="-KH-w43nPv-_DPD-mbIj-27" target="-KH-w43nPv-_DPD-mbIj-35">
          <mxGeometry relative="1" as="geometry" />
        </mxCell>
        <mxCell id="-KH-w43nPv-_DPD-mbIj-27" value="&lt;font style=&quot;font-size: 15px&quot;&gt;飞桨框架&lt;br&gt;保存加载接口&lt;/font&gt;" style="rounded=0;whiteSpace=wrap;html=1;fontSize=15;" vertex="1" parent="IqiYwdcGuuer1LMKlhtB-1">
          <mxGeometry x="-90" y="469" width="120" height="60" as="geometry" />
        </mxCell>
        <mxCell id="-KH-w43nPv-_DPD-mbIj-55" style="edgeStyle=orthogonalEdgeStyle;rounded=0;orthogonalLoop=1;jettySize=auto;html=1;exitX=1;exitY=0.5;exitDx=0;exitDy=0;entryX=0;entryY=0.5;entryDx=0;entryDy=0;fontSize=15;" edge="1" parent="IqiYwdcGuuer1LMKlhtB-1" source="-KH-w43nPv-_DPD-mbIj-29" target="-KH-w43nPv-_DPD-mbIj-36">
          <mxGeometry relative="1" as="geometry" />
        </mxCell>
        <mxCell id="-KH-w43nPv-_DPD-mbIj-56" style="edgeStyle=orthogonalEdgeStyle;rounded=0;orthogonalLoop=1;jettySize=auto;html=1;exitX=1;exitY=0.5;exitDx=0;exitDy=0;entryX=0;entryY=0.5;entryDx=0;entryDy=0;fontSize=15;" edge="1" parent="IqiYwdcGuuer1LMKlhtB-1" target="-KH-w43nPv-_DPD-mbIj-37">
          <mxGeometry relative="1" as="geometry">
            <mxPoint x="503" y="161" as="sourcePoint" />
            <mxPoint x="593" y="108" as="targetPoint" />
            <Array as="points">
              <mxPoint x="543" y="161" />
              <mxPoint x="543" y="108" />
            </Array>
          </mxGeometry>
        </mxCell>
        <mxCell id="-KH-w43nPv-_DPD-mbIj-57" style="edgeStyle=orthogonalEdgeStyle;rounded=0;orthogonalLoop=1;jettySize=auto;html=1;exitX=1;exitY=0.5;exitDx=0;exitDy=0;entryX=0;entryY=0.5;entryDx=0;entryDy=0;fontSize=15;" edge="1" parent="IqiYwdcGuuer1LMKlhtB-1" source="-KH-w43nPv-_DPD-mbIj-29" target="-KH-w43nPv-_DPD-mbIj-40">
          <mxGeometry relative="1" as="geometry" />
        </mxCell>
        <mxCell id="-KH-w43nPv-_DPD-mbIj-58" style="edgeStyle=orthogonalEdgeStyle;rounded=0;orthogonalLoop=1;jettySize=auto;html=1;exitX=1;exitY=0.5;exitDx=0;exitDy=0;entryX=0;entryY=0.5;entryDx=0;entryDy=0;fontSize=15;" edge="1" parent="IqiYwdcGuuer1LMKlhtB-1" source="-KH-w43nPv-_DPD-mbIj-29" target="-KH-w43nPv-_DPD-mbIj-43">
          <mxGeometry relative="1" as="geometry" />
        </mxCell>
        <mxCell id="-KH-w43nPv-_DPD-mbIj-29" value="动态图" style="rounded=0;whiteSpace=wrap;html=1;fontSize=15;" vertex="1" parent="IqiYwdcGuuer1LMKlhtB-1">
          <mxGeometry x="390" y="136" width="120" height="50" as="geometry" />
        </mxCell>
        <mxCell id="-KH-w43nPv-_DPD-mbIj-63" style="edgeStyle=orthogonalEdgeStyle;rounded=0;orthogonalLoop=1;jettySize=auto;html=1;exitX=1;exitY=0.5;exitDx=0;exitDy=0;entryX=0;entryY=0.5;entryDx=0;entryDy=0;fontSize=15;" edge="1" parent="IqiYwdcGuuer1LMKlhtB-1" source="-KH-w43nPv-_DPD-mbIj-30" target="-KH-w43nPv-_DPD-mbIj-44">
          <mxGeometry relative="1" as="geometry" />
        </mxCell>
        <mxCell id="-KH-w43nPv-_DPD-mbIj-30" value="&lt;font style=&quot;font-size: 15px&quot;&gt;动转静&lt;/font&gt;" style="rounded=0;whiteSpace=wrap;html=1;fontSize=15;" vertex="1" parent="IqiYwdcGuuer1LMKlhtB-1">
          <mxGeometry x="390" y="670" width="120" height="50" as="geometry" />
        </mxCell>
        <mxCell id="-KH-w43nPv-_DPD-mbIj-31" value="2.1 框架保存加载体系图" style="text;html=1;strokeColor=none;fillColor=none;align=center;verticalAlign=middle;whiteSpace=wrap;rounded=0;fontSize=20;" vertex="1" parent="IqiYwdcGuuer1LMKlhtB-1">
          <mxGeometry x="-100" y="-10" width="260" height="20" as="geometry" />
        </mxCell>
        <mxCell id="-KH-w43nPv-_DPD-mbIj-32" value="注：其中绿色的功能点为2.1版本魏鑫新增" style="text;html=1;strokeColor=none;fillColor=none;align=left;verticalAlign=middle;whiteSpace=wrap;rounded=0;fontSize=15;" vertex="1" parent="IqiYwdcGuuer1LMKlhtB-1">
          <mxGeometry x="-45" y="30" width="345" height="40" as="geometry" />
        </mxCell>
        <mxCell id="-KH-w43nPv-_DPD-mbIj-51" style="edgeStyle=orthogonalEdgeStyle;rounded=0;orthogonalLoop=1;jettySize=auto;html=1;exitX=1;exitY=0.5;exitDx=0;exitDy=0;entryX=0;entryY=0.5;entryDx=0;entryDy=0;fontSize=15;" edge="1" parent="IqiYwdcGuuer1LMKlhtB-1" source="-KH-w43nPv-_DPD-mbIj-33" target="-KH-w43nPv-_DPD-mbIj-29">
          <mxGeometry relative="1" as="geometry" />
        </mxCell>
        <mxCell id="-KH-w43nPv-_DPD-mbIj-52" style="edgeStyle=orthogonalEdgeStyle;rounded=0;orthogonalLoop=1;jettySize=auto;html=1;exitX=1;exitY=0.5;exitDx=0;exitDy=0;entryX=0;entryY=0.5;entryDx=0;entryDy=0;fontSize=15;" edge="1" parent="IqiYwdcGuuer1LMKlhtB-1" source="-KH-w43nPv-_DPD-mbIj-33" target="-KH-w43nPv-_DPD-mbIj-42">
          <mxGeometry relative="1" as="geometry" />
        </mxCell>
        <mxCell id="-KH-w43nPv-_DPD-mbIj-33" value="&lt;span style=&quot;font-size: 16px&quot;&gt;&lt;font style=&quot;font-size: 16px&quot;&gt;paddle.save/load&lt;/font&gt;&lt;/span&gt;" style="rounded=0;whiteSpace=wrap;html=1;fontSize=16;opacity=70;fontStyle=1;fontFamily=monospace;" vertex="1" parent="IqiYwdcGuuer1LMKlhtB-1">
          <mxGeometry x="95.5" y="270" width="205" height="40" as="geometry" />
        </mxCell>
        <mxCell id="-KH-w43nPv-_DPD-mbIj-53" style="edgeStyle=orthogonalEdgeStyle;rounded=0;orthogonalLoop=1;jettySize=auto;html=1;exitX=1;exitY=0.5;exitDx=0;exitDy=0;entryX=0;entryY=0.5;entryDx=0;entryDy=0;fontSize=15;" edge="1" parent="IqiYwdcGuuer1LMKlhtB-1" source="-KH-w43nPv-_DPD-mbIj-35" target="-KH-w43nPv-_DPD-mbIj-30">
          <mxGeometry relative="1" as="geometry" />
        </mxCell>
        <mxCell id="-KH-w43nPv-_DPD-mbIj-35" value="&lt;span style=&quot;font-size: 16px&quot;&gt;paddle.jit.save/load&lt;/span&gt;" style="rounded=0;whiteSpace=wrap;html=1;fontSize=16;opacity=70;strokeWidth=1;fontStyle=1;fontFamily=monospace;" vertex="1" parent="IqiYwdcGuuer1LMKlhtB-1">
          <mxGeometry x="95.5" y="675" width="236" height="40" as="geometry" />
        </mxCell>
        <mxCell id="-KH-w43nPv-_DPD-mbIj-36" value="Layer.state_dict&lt;br&gt;Optimizer.state_dict" style="rounded=0;whiteSpace=wrap;html=1;fontSize=15;" vertex="1" parent="IqiYwdcGuuer1LMKlhtB-1">
          <mxGeometry x="575" y="-20" width="150" height="60" as="geometry" />
        </mxCell>
        <mxCell id="-KH-w43nPv-_DPD-mbIj-37" value="Layer" style="rounded=0;whiteSpace=wrap;html=1;fontSize=15;fillColor=#d5e8d4;strokeColor=#82b366;" vertex="1" parent="IqiYwdcGuuer1LMKlhtB-1">
          <mxGeometry x="600" y="88" width="90" height="40" as="geometry" />
        </mxCell>
        <mxCell id="-KH-w43nPv-_DPD-mbIj-38" value="Program" style="rounded=0;whiteSpace=wrap;html=1;fontSize=15;fillColor=#d5e8d4;strokeColor=#82b366;" vertex="1" parent="IqiYwdcGuuer1LMKlhtB-1">
          <mxGeometry x="605" y="381" width="90" height="40" as="geometry" />
        </mxCell>
        <mxCell id="-KH-w43nPv-_DPD-mbIj-39" value="Program.state_dict" style="rounded=0;whiteSpace=wrap;html=1;fontSize=15;fillColor=#d5e8d4;strokeColor=#82b366;" vertex="1" parent="IqiYwdcGuuer1LMKlhtB-1">
          <mxGeometry x="575" y="474" width="150" height="50" as="geometry" />
        </mxCell>
        <mxCell id="-KH-w43nPv-_DPD-mbIj-40" value="Tensor(原VarBase)" style="rounded=0;whiteSpace=wrap;html=1;fontSize=15;fillColor=#d5e8d4;strokeColor=#82b366;" vertex="1" parent="IqiYwdcGuuer1LMKlhtB-1">
          <mxGeometry x="575" y="186" width="150" height="40" as="geometry" />
        </mxCell>
        <mxCell id="-KH-w43nPv-_DPD-mbIj-41" value="LoDTensor&lt;br&gt;pickle格式(训练)&lt;br&gt;&amp;nbsp;二进制格式(预测)" style="rounded=0;whiteSpace=wrap;html=1;fontSize=15;fillColor=#d5e8d4;strokeColor=#82b366;" vertex="1" parent="IqiYwdcGuuer1LMKlhtB-1">
          <mxGeometry x="570" y="567" width="160" height="60" as="geometry" />
        </mxCell>
        <mxCell id="-KH-w43nPv-_DPD-mbIj-60" style="edgeStyle=orthogonalEdgeStyle;rounded=0;orthogonalLoop=1;jettySize=auto;html=1;exitX=1;exitY=0.5;exitDx=0;exitDy=0;entryX=0;entryY=0.5;entryDx=0;entryDy=0;fontSize=15;" edge="1" parent="IqiYwdcGuuer1LMKlhtB-1" source="-KH-w43nPv-_DPD-mbIj-42" target="-KH-w43nPv-_DPD-mbIj-38">
          <mxGeometry relative="1" as="geometry">
            <Array as="points">
              <mxPoint x="540" y="499" />
              <mxPoint x="540" y="401" />
            </Array>
          </mxGeometry>
        </mxCell>
        <mxCell id="-KH-w43nPv-_DPD-mbIj-61" style="edgeStyle=orthogonalEdgeStyle;rounded=0;orthogonalLoop=1;jettySize=auto;html=1;exitX=1;exitY=0.5;exitDx=0;exitDy=0;entryX=0;entryY=0.5;entryDx=0;entryDy=0;fontSize=15;" edge="1" parent="IqiYwdcGuuer1LMKlhtB-1" source="-KH-w43nPv-_DPD-mbIj-42" target="-KH-w43nPv-_DPD-mbIj-39">
          <mxGeometry relative="1" as="geometry" />
        </mxCell>
        <mxCell id="-KH-w43nPv-_DPD-mbIj-62" style="edgeStyle=orthogonalEdgeStyle;rounded=0;orthogonalLoop=1;jettySize=auto;html=1;exitX=1;exitY=0.5;exitDx=0;exitDy=0;entryX=0;entryY=0.5;entryDx=0;entryDy=0;fontSize=15;" edge="1" parent="IqiYwdcGuuer1LMKlhtB-1" source="-KH-w43nPv-_DPD-mbIj-42" target="-KH-w43nPv-_DPD-mbIj-41">
          <mxGeometry relative="1" as="geometry" />
        </mxCell>
        <mxCell id="-KH-w43nPv-_DPD-mbIj-42" value="静态图" style="rounded=0;whiteSpace=wrap;html=1;fontSize=15;" vertex="1" parent="IqiYwdcGuuer1LMKlhtB-1">
          <mxGeometry x="390" y="474" width="120" height="50" as="geometry" />
        </mxCell>
        <mxCell id="-KH-w43nPv-_DPD-mbIj-43" value="含Tensor的list/dict等复杂嵌套结构" style="rounded=0;whiteSpace=wrap;html=1;fontSize=15;fillColor=#d5e8d4;strokeColor=#82b366;" vertex="1" parent="IqiYwdcGuuer1LMKlhtB-1">
          <mxGeometry x="575" y="274" width="150" height="60" as="geometry" />
        </mxCell>
        <mxCell id="-KH-w43nPv-_DPD-mbIj-44" value="Layer2InferProgram" style="rounded=0;whiteSpace=wrap;html=1;fontSize=15;" vertex="1" parent="IqiYwdcGuuer1LMKlhtB-1">
          <mxGeometry x="570" y="675" width="160" height="40" as="geometry" />
        </mxCell>
        <mxCell id="-KH-w43nPv-_DPD-mbIj-65" value="&lt;span style=&quot;font-size: 16px&quot;&gt;&lt;font style=&quot;font-size: 16px&quot;&gt;paddle.static.save/load_inference_model&lt;/font&gt;&lt;/span&gt;" style="rounded=0;whiteSpace=wrap;html=1;fontSize=16;opacity=70;fontStyle=1;fontFamily=monospace;fillColor=#f5f5f5;strokeColor=#666666;fontColor=#333333;" vertex="1" parent="IqiYwdcGuuer1LMKlhtB-1">
          <mxGeometry x="810" y="381" width="410" height="40" as="geometry" />
        </mxCell>
        <mxCell id="-KH-w43nPv-_DPD-mbIj-66" value="&lt;span style=&quot;font-size: 16px&quot;&gt;&lt;font style=&quot;font-size: 16px&quot;&gt;paddle.static.save/load&lt;/font&gt;&lt;/span&gt;" style="rounded=0;whiteSpace=wrap;html=1;fontSize=16;opacity=70;fontStyle=1;fontFamily=monospace;fillColor=#f5f5f5;strokeColor=#666666;fontColor=#333333;" vertex="1" parent="IqiYwdcGuuer1LMKlhtB-1">
          <mxGeometry x="840" y="479" width="280" height="40" as="geometry" />
        </mxCell>
        <mxCell id="-KH-w43nPv-_DPD-mbIj-67" value="&lt;span style=&quot;font-size: 16px&quot;&gt;&lt;font style=&quot;font-size: 16px&quot;&gt;paddle.static.save/load_var&lt;/font&gt;&lt;/span&gt;" style="rounded=0;whiteSpace=wrap;html=1;fontSize=16;opacity=70;fontStyle=1;fontFamily=monospace;fillColor=#f5f5f5;strokeColor=#666666;fontColor=#333333;" vertex="1" parent="IqiYwdcGuuer1LMKlhtB-1">
          <mxGeometry x="850" y="577" width="310" height="40" as="geometry" />
        </mxCell>
        <mxCell id="-KH-w43nPv-_DPD-mbIj-70" value="替代原接口" style="text;html=1;strokeColor=none;fillColor=none;align=center;verticalAlign=middle;whiteSpace=wrap;rounded=0;fontSize=15;" vertex="1" parent="IqiYwdcGuuer1LMKlhtB-1">
          <mxGeometry x="710" y="391" width="90" height="20" as="geometry" />
        </mxCell>
        <mxCell id="-KH-w43nPv-_DPD-mbIj-72" value="替代原接口" style="text;html=1;strokeColor=none;fillColor=none;align=center;verticalAlign=middle;whiteSpace=wrap;rounded=0;fontSize=15;" vertex="1" parent="IqiYwdcGuuer1LMKlhtB-1">
          <mxGeometry x="737" y="489" width="90" height="20" as="geometry" />
        </mxCell>
        <mxCell id="-KH-w43nPv-_DPD-mbIj-73" value="替代原接口" style="text;html=1;strokeColor=none;fillColor=none;align=center;verticalAlign=middle;whiteSpace=wrap;rounded=0;fontSize=15;" vertex="1" parent="IqiYwdcGuuer1LMKlhtB-1">
          <mxGeometry x="749" y="587" width="90" height="20" as="geometry" />
        </mxCell>
        <mxCell id="-KH-w43nPv-_DPD-mbIj-74" value="&lt;span style=&quot;color: rgb(0 , 0 , 0) ; font-family: &amp;#34;helvetica&amp;#34; ; font-size: 15px ; font-style: normal ; font-weight: 400 ; letter-spacing: normal ; text-align: left ; text-indent: 0px ; text-transform: none ; word-spacing: 0px ; background-color: rgb(248 , 249 , 250) ; display: inline ; float: none&quot;&gt;体系整合指导思想：&lt;/span&gt;&lt;br style=&quot;color: rgb(0 , 0 , 0) ; font-family: &amp;#34;helvetica&amp;#34; ; font-size: 15px ; font-style: normal ; font-weight: 400 ; letter-spacing: normal ; text-align: left ; text-indent: 0px ; text-transform: none ; word-spacing: 0px ; background-color: rgb(248 , 249 , 250)&quot;&gt;&lt;span style=&quot;color: rgb(0 , 0 , 0) ; font-family: &amp;#34;helvetica&amp;#34; ; font-size: 15px ; font-style: normal ; font-weight: 400 ; letter-spacing: normal ; text-align: left ; text-indent: 0px ; text-transform: none ; word-spacing: 0px ; background-color: rgb(248 , 249 , 250) ; display: inline ; float: none&quot;&gt;1. 明确接口边界，灵活适配多场景：paddle.save/load的边界是“给什么就存什么，没有多余操作”，这样的边界能够适配多种保存场景，只需要将需要存储的对象拿出来传入save接口即可&lt;br&gt;2. 减少接口数量，降低维护和学习成本：基于以上思想，将原先的几个静态图save/load接口的功能整合到一级主接口save/load上，今后用户只需要关注paddle.save/load接口&lt;br&gt;&lt;/span&gt;" style="text;whiteSpace=wrap;html=1;fontSize=20;" vertex="1" parent="IqiYwdcGuuer1LMKlhtB-1">
          <mxGeometry x="-40" y="770" width="1470" height="130" as="geometry" />
        </mxCell>
      </root>
    </mxGraphModel>
  </diagram>
</mxfile>
